<?xml version="1.0" encoding="UTF-8"?>
<svg xmlns="http://www.w3.org/2000/svg" xmlns:xlink="http://www.w3.org/1999/xlink" width="48pt" height="48pt" viewBox="0 0 48 48" version="1.1">
<g id="surface1">
<path style=" stroke:none;fill-rule:nonzero;fill:rgb(54.509804%,55.686275%,59.607843%);fill-opacity:1;" d="M 23.25 2.25 C 11.652344 2.25 2.25 11.652344 2.25 23.25 C 2.25 34.847656 11.652344 44.25 23.25 44.25 C 34.847656 44.25 44.25 34.847656 44.25 23.25 C 44.25 11.652344 34.847656 2.25 23.25 2.25 Z M 23.25 2.25 "/>
<path style=" stroke:none;fill-rule:nonzero;fill:rgb(49.411765%,50.588235%,53.72549%);fill-opacity:1;" d="M 23.25 40.5 C 13.722656 40.5 6 32.777344 6 23.25 C 6 13.722656 13.722656 6 23.25 6 C 32.777344 6 40.5 13.722656 40.5 23.25 C 40.5 32.777344 32.777344 40.5 23.25 40.5 Z M 23.25 40.5 "/>
<path style=" stroke:none;fill-rule:nonzero;fill:rgb(98.039216%,93.72549%,87.058824%);fill-opacity:1;" d="M 27.058594 32.511719 C 28.332031 33.878906 29.105469 35.636719 29.25 37.5 L 29.25 41.4375 C 29.25 41.851562 29.421875 43.035156 29.925781 43.171875 L 23.25 44.386719 L 16.5 43.175781 C 17.039062 43.058594 17.25 41.851562 17.25 41.4375 C 17.25 41.023438 17.25 40.753906 17.25 39 C 11.40625 40.265625 10.199219 35.773438 10.199219 35.773438 C 9.238281 33.351562 7.867188 32.699219 7.867188 32.699219 C 5.960938 31.402344 8.011719 31.425781 8.011719 31.425781 C 9.367188 31.605469 10.5625 32.40625 11.25 33.59375 C 13.125 36.796875 16.078125 36.53125 17.25 36 C 17.445312 34.640625 18.824219 33.050781 19.425781 32.527344 C 14.761719 31.996094 9.855469 30.195312 9.855469 22.148438 C 9.816406 20.058594 10.585938 18.035156 12 16.5 C 11.363281 14.6875 11.4375 12.703125 12.210938 10.941406 C 12.210938 10.941406 13.972656 10.378906 17.984375 13.09375 C 21.421875 12.15625 25.046875 12.15625 28.484375 13.09375 C 32.488281 10.378906 34.253906 10.941406 34.253906 10.941406 C 35.039062 12.695312 35.125 14.683594 34.5 16.5 C 35.914062 18.03125 36.683594 20.046875 36.652344 22.132812 C 36.644531 30.21875 31.738281 31.996094 27.058594 32.511719 Z M 27.058594 32.511719 "/>
<path style=" stroke:none;fill-rule:nonzero;fill:rgb(55.294118%,42.352941%,62.352941%);fill-opacity:1;" d="M 23.25 1.5 C 12.644531 1.507812 3.585938 9.164062 1.816406 19.621094 C 0.046875 30.078125 6.082031 40.289062 16.09375 43.785156 C 16.214844 43.871094 16.359375 43.921875 16.507812 43.925781 C 24.675781 46.59375 33.652344 44.199219 39.40625 37.816406 C 45.160156 31.433594 46.617188 22.261719 43.125 14.410156 C 39.632812 6.558594 31.84375 1.5 23.25 1.5 Z M 17.773438 42.75 C 17.910156 42.328125 17.988281 41.886719 18 41.445312 L 18 41.039062 C 18 40.703125 18 40.246094 18 39 C 18.003906 38.769531 17.90625 38.550781 17.726562 38.40625 C 17.550781 38.257812 17.316406 38.203125 17.09375 38.25 C 12.050781 39.34375 10.964844 35.714844 10.921875 35.566406 L 10.921875 35.484375 C 10.480469 34.234375 9.703125 33.132812 8.671875 32.300781 C 9.472656 32.632812 10.144531 33.210938 10.589844 33.953125 C 12.570312 37.351562 15.839844 37.441406 17.566406 36.667969 C 17.800781 36.5625 17.964844 36.34375 18 36.089844 C 18.347656 34.929688 19.011719 33.890625 19.921875 33.089844 C 20.140625 32.890625 20.226562 32.582031 20.132812 32.300781 C 20.042969 32.019531 19.792969 31.816406 19.5 31.785156 C 15.097656 31.28125 10.597656 29.746094 10.597656 22.15625 C 10.566406 20.253906 11.269531 18.417969 12.5625 17.023438 C 12.777344 16.820312 12.851562 16.507812 12.75 16.230469 C 12.210938 14.753906 12.210938 13.136719 12.75 11.664062 C 13.386719 11.664062 14.941406 11.953125 17.566406 13.734375 C 17.746094 13.855469 17.976562 13.894531 18.1875 13.835938 C 21.496094 12.933594 24.988281 12.933594 28.296875 13.835938 C 28.511719 13.894531 28.738281 13.855469 28.921875 13.734375 C 31.550781 11.949219 33.113281 11.675781 33.726562 11.65625 C 34.285156 13.125 34.304688 14.746094 33.78125 16.230469 C 33.671875 16.496094 33.726562 16.804688 33.921875 17.015625 C 35.210938 18.410156 35.914062 20.25 35.878906 22.148438 C 35.878906 29.746094 31.378906 31.273438 26.960938 31.761719 C 26.667969 31.796875 26.417969 32.003906 26.332031 32.285156 C 26.242188 32.570312 26.332031 32.878906 26.558594 33.074219 C 27.667969 34.300781 28.347656 35.855469 28.5 37.5 L 28.5 41.4375 C 28.511719 41.882812 28.582031 42.324219 28.71875 42.75 C 25.140625 43.757812 21.351562 43.757812 17.773438 42.75 Z M 30.148438 42.300781 C 30.0625 42.027344 30.011719 41.742188 30 41.453125 L 30 37.5 C 29.910156 35.914062 29.394531 34.382812 28.5 33.066406 C 32.664062 32.363281 37.417969 30.203125 37.417969 22.148438 C 37.449219 20.03125 36.722656 17.972656 35.363281 16.351562 C 35.890625 14.472656 35.761719 12.472656 35.003906 10.679688 C 34.917969 10.472656 34.75 10.3125 34.539062 10.246094 C 34.328125 10.175781 32.398438 9.675781 28.402344 12.300781 C 25.042969 11.441406 21.519531 11.441406 18.15625 12.300781 C 14.160156 9.675781 12.234375 10.175781 12.023438 10.246094 C 11.8125 10.3125 11.640625 10.472656 11.558594 10.679688 C 10.796875 12.472656 10.667969 14.472656 11.199219 16.351562 C 9.839844 17.972656 9.109375 20.03125 9.140625 22.148438 C 9.140625 30.136719 13.816406 32.332031 17.941406 33.066406 C 17.359375 33.765625 16.914062 34.570312 16.636719 35.4375 C 15.570312 35.738281 13.378906 35.746094 11.917969 33.234375 C 11.101562 31.820312 9.671875 30.878906 8.054688 30.683594 C 7.648438 30.683594 6.628906 30.75 6.390625 31.53125 C 6.148438 32.308594 7.074219 33.03125 7.484375 33.328125 L 7.582031 33.382812 C 7.628906 33.382812 8.722656 33.984375 9.53125 36.03125 C 9.703125 36.5625 11.199219 40.605469 16.546875 39.890625 C 16.546875 40.484375 16.546875 40.785156 16.546875 41.015625 L 16.546875 41.4375 C 16.535156 41.726562 16.480469 42.011719 16.386719 42.285156 C 7.144531 38.933594 1.644531 29.425781 3.347656 19.742188 C 5.046875 10.058594 13.460938 3 23.292969 3 C 33.121094 3 41.535156 10.058594 43.234375 19.742188 C 44.9375 29.425781 39.4375 38.933594 30.195312 42.285156 Z M 30.148438 42.300781 "/>
<path style=" stroke:none;fill-rule:nonzero;fill:rgb(55.294118%,42.352941%,62.352941%);fill-opacity:1;" d="M 23.25 27.75 C 22.835938 27.75 22.5 28.085938 22.5 28.5 L 22.5 30 C 22.5 30.414062 22.835938 30.75 23.25 30.75 C 23.664062 30.75 24 30.414062 24 30 L 24 28.5 C 24 28.085938 23.664062 27.75 23.25 27.75 Z M 26.699219 29.648438 C 26.808594 30.046875 27.222656 30.28125 27.621094 30.171875 C 28.023438 30.0625 28.257812 29.648438 28.148438 29.25 L 27.75 27.808594 C 27.632812 27.421875 27.226562 27.199219 26.835938 27.304688 C 26.449219 27.410156 26.210938 27.804688 26.300781 28.199219 Z M 16.3125 25.890625 C 16.140625 25.789062 15.933594 25.761719 15.742188 25.816406 C 15.546875 25.867188 15.382812 25.992188 15.285156 26.167969 L 14.535156 27.464844 C 14.347656 27.820312 14.476562 28.261719 14.824219 28.460938 C 15.171875 28.664062 15.617188 28.554688 15.832031 28.214844 L 16.582031 26.917969 C 16.683594 26.746094 16.710938 26.539062 16.660156 26.347656 C 16.609375 26.15625 16.484375 25.988281 16.3125 25.890625 Z M 30.660156 28.214844 C 30.789062 28.460938 31.039062 28.613281 31.3125 28.617188 C 31.589844 28.621094 31.84375 28.472656 31.980469 28.234375 C 32.113281 27.992188 32.105469 27.699219 31.957031 27.464844 L 31.207031 26.167969 C 30.992188 25.828125 30.546875 25.71875 30.199219 25.921875 C 29.851562 26.121094 29.722656 26.5625 29.910156 26.917969 Z M 19.65625 27.277344 C 19.257812 27.171875 18.847656 27.410156 18.742188 27.808594 L 18.351562 29.25 C 18.273438 29.511719 18.339844 29.796875 18.53125 29.992188 C 18.722656 30.191406 19.007812 30.265625 19.269531 30.191406 C 19.535156 30.117188 19.738281 29.90625 19.800781 29.640625 L 20.191406 28.191406 C 20.292969 27.792969 20.058594 27.382812 19.65625 27.277344 Z M 31.011719 7.09375 C 30.453125 6.8125 29.875 6.5625 29.289062 6.34375 C 28.90625 6.226562 28.503906 6.425781 28.363281 6.796875 C 28.222656 7.171875 28.398438 7.585938 28.761719 7.746094 C 29.300781 7.949219 29.824219 8.179688 30.335938 8.4375 C 30.441406 8.492188 30.558594 8.519531 30.675781 8.519531 C 31.019531 8.519531 31.320312 8.28125 31.398438 7.945312 C 31.480469 7.609375 31.320312 7.261719 31.011719 7.101562 Z M 25.988281 5.46875 C 22.113281 4.855469 18.148438 5.574219 14.738281 7.507812 C 14.441406 7.675781 14.292969 8.023438 14.382812 8.355469 C 14.472656 8.683594 14.769531 8.914062 15.113281 8.910156 C 15.242188 8.910156 15.367188 8.875 15.480469 8.8125 C 18.597656 7.046875 22.21875 6.390625 25.753906 6.953125 C 26.167969 7.019531 26.558594 6.738281 26.625 6.324219 C 26.691406 5.910156 26.410156 5.519531 25.996094 5.453125 Z M 25.988281 5.46875 "/>
</g>
</svg>
