<svg id="bd4d382f-3ad3-4c40-a04c-93bb574f9328" data-name="Layer 1" xmlns="http://www.w3.org/2000/svg" width="650.50209" height="698.68496" viewBox="0 0 650.50209 698.68496"><path d="M415.55657,383.62012c-30.66552-30.188-43.61718-61.68164-36.47021-88.67871,9.17187-34.645,49.918-58.59912,111.79053-65.72022l.22851,1.98731C430.09417,238.23,389.96966,261.64648,381.02,295.45312c-6.95556,26.27344,5.80811,57.07911,35.93994,86.74219Z" transform="translate(-274.74896 -100.65752)" fill="#f0f0f0"/><path d="M711.42718,490.77832c-38.27246,0-79.86231-5.6875-121.17285-16.624-51.08594-13.52442-97.92627-33.938-135.457-59.03467l1.11132-1.66211c37.3501,24.9751,83.98291,45.29541,134.85743,58.76318C636.74066,484.39258,683.06,490.03223,724.69964,488.544l.07227,1.998Q718.17571,490.77931,711.42718,490.77832Z" transform="translate(-274.74896 -100.65752)" fill="#f0f0f0"/><path d="M799.22894,478.20117l-.64063-1.89453c34.22949-11.57324,55.63867-30.21631,61.91309-53.91553,7.97558-30.12744-9.35156-65.08838-48.79-98.44287-39.63965-33.52392-96.80078-61.34033-160.95606-78.32422l.51172-1.93359c64.43555,17.05859,121.875,45.019,161.73535,78.731,40.06153,33.88086,57.61719,69.56591,49.43262,100.48144C855.98089,447.28174,834.12444,466.40332,799.22894,478.20117Z" transform="translate(-274.74896 -100.65752)" fill="#f0f0f0"/><path d="M484.9223,491.61426C409.71917,458.26074,351.76946,414.98877,321.749,369.76855l1.666-1.10644c29.813,44.90723,87.4585,87.92285,162.31787,121.124Z" transform="translate(-274.74896 -100.65752)" fill="#f0f0f0"/><path d="M749.3305,549.39648q-11.63526,0-23.668-.51953l.08594-1.998c59.86426,2.59179,112.68359-4.57227,152.75781-20.72168l.74805,1.85547C844.29632,542.09863,799.73968,549.39648,749.3305,549.39648Z" transform="translate(-274.74896 -100.65752)" fill="#f0f0f0"/><path d="M705.69671,231.01465c-12.42969-4.04688-25.21484-7.81494-38-11.19971C594.123,200.3374,521.79925,193.42188,458.54144,199.81982l-.20118-1.99023c63.49366-6.41895,136.065.51318,209.86817,20.05176,12.82129,3.39453,25.64258,7.17334,38.10742,11.23193Z" transform="translate(-274.74896 -100.65752)" fill="#f0f0f0"/><path d="M368.55657,386.62012c-30.66552-30.188-43.61718-61.68164-36.47021-88.67871,9.17187-34.645,49.918-58.59912,111.79053-65.72022l.22851,1.98731C383.09417,241.23,342.96966,264.64648,334.02,298.45312c-6.95556,26.27344,5.80811,57.07911,35.93994,86.74219Z" transform="translate(-274.74896 -100.65752)" fill="#f0f0f0"/><path d="M664.42718,493.77832c-38.27246,0-79.86231-5.6875-121.17285-16.624-51.08594-13.52442-97.92627-33.938-135.457-59.03467l1.11132-1.66211c37.3501,24.9751,83.98291,45.29541,134.85743,58.76318C589.74066,487.39258,636.06,493.03223,677.69964,491.544l.07227,1.998Q671.17571,493.77931,664.42718,493.77832Z" transform="translate(-274.74896 -100.65752)" fill="#f0f0f0"/><path d="M752.22894,481.20117l-.64063-1.89453c34.22949-11.57324,55.63867-30.21631,61.91309-53.91553,7.97558-30.12744-9.35156-65.08838-48.79-98.44287-39.63965-33.52392-96.80078-61.34033-160.95606-78.32422l.51172-1.93359c64.43555,17.05859,121.875,45.019,161.73535,78.731,40.06153,33.88086,57.61719,69.56591,49.43262,100.48144C808.98089,450.28174,787.12444,469.40332,752.22894,481.20117Z" transform="translate(-274.74896 -100.65752)" fill="#f0f0f0"/><path d="M437.9223,494.61426C362.71917,461.26074,304.76946,417.98877,274.749,372.76855l1.666-1.10644c29.813,44.90723,87.4585,87.92285,162.31787,121.124Z" transform="translate(-274.74896 -100.65752)" fill="#f0f0f0"/><path d="M702.3305,552.39648q-11.63526,0-23.668-.51953l.08594-1.998c59.86426,2.59179,112.68359-4.57227,152.75781-20.72168l.74805,1.85547C797.29632,545.09863,752.73968,552.39648,702.3305,552.39648Z" transform="translate(-274.74896 -100.65752)" fill="#f0f0f0"/><path d="M658.69671,234.01465c-12.42969-4.04688-25.21484-7.81494-38-11.19971C547.123,203.3374,474.79925,196.42188,411.54144,202.81982l-.20118-1.99023c63.49366-6.41895,136.065.51318,209.86817,20.05176,12.82129,3.39453,25.64258,7.17334,38.10742,11.23193Z" transform="translate(-274.74896 -100.65752)" fill="#f0f0f0"/><g id="a9a6faa7-f9f8-42ac-a25b-707af5da24b3" data-name="Group 221"><path id="b6badfe4-ecf7-40b3-ab9a-d2e442646810" data-name="Path 2938" d="M671.134,414.03945l17-2,6,52,15.319,71.808a11.00008,11.00008,0,1,1-11.933,1.5l-15.386-42.308Z" transform="translate(-274.74896 -100.65752)" fill="#ffb6b6"/><path id="eb66624a-625c-4022-aac2-7acd24895291" data-name="Path 2939" d="M646.438,784.75347h14.006l6.664-54.025H646.436Z" transform="translate(-274.74896 -100.65752)" fill="#ffb6b6"/><path id="a67f4ff8-8ebc-49ff-bea4-e9dad041920e" data-name="Path 2940" d="M642.866,798.32748h45.162v-.571a17.579,17.579,0,0,0-17.577-17.578H642.866Z" transform="translate(-274.74896 -100.65752)" fill="#2f2e41"/><path id="f2666089-6ab6-4bee-94c7-c04bd8c6f398" data-name="Path 2941" d="M538.948,777.11443l13.752,2.655,16.788-51.78-20.3-3.919Z" transform="translate(-274.74896 -100.65752)" fill="#ffb6b6"/><path id="e202d012-54d0-4120-af29-b522f4befddf" data-name="Path 2942" d="M532.87,789.76748l44.343,8.563.108-.561a17.58,17.58,0,0,0-13.926-20.593h0l-27.083-5.23Z" transform="translate(-274.74896 -100.65752)" fill="#2f2e41"/><path id="a7799203-f10e-4175-b8b3-865436e3910e" data-name="Path 2943" d="M668.4,328.82644l-8.138,15.614-60.951-13.443,6.677-30.273c5.285-23.962,26.472-41.267,50.434-35.982s35.142,28.705,29.857,52.667l-9.822,30.6-9.938-2.192Z" transform="translate(-274.74896 -100.65752)" fill="#2f2e41"/><path id="fb4efb0d-4e34-4aa4-af9b-85f1b453b517" data-name="Path 2944" d="M690.134,501.04046s6,30-2,74-10,63-10,63,6,7,2,11,0,12,0,12l-9,97-31-5,4-91s-4-8-2-10-2-14-2-14l-5-95-31,104s3,4,0,7-9,18-9,18l-20,70-32-6,18-80s-2-5,1-8a7.83394,7.83394,0,0,0,2-7s-3-3,1-7,6-20,6-20,3-107,13-113S690.134,501.04046,690.134,501.04046Z" transform="translate(-274.74896 -100.65752)" fill="#2f2e41"/><circle id="b01ade62-873d-4b0f-b59f-ba4b75076aa4" data-name="Ellipse 569" cx="370.16807" cy="206.92093" r="28" fill="#ffb6b6"/><path id="b558b83e-b369-42dd-8f4d-22a4c2c4f5e2" data-name="Path 2945" d="M605.457,343.42044s-20.324-2.381-26.324,3.619l6,121s-4,3-2,10a28.56751,28.56751,0,0,1,0,14s-6,7-3,10,111,1,111,1,4-7-2-11-3-15-3-15,2-3-3-8-9-46-9-46l13-50s-13.086-14.771-28.043-15.885Z" transform="translate(-274.74896 -100.65752)" fill="#e6e6e6"/><path id="f8cef0e8-06d3-4209-b80b-8403fdc77134" data-name="Path 2946" d="M671.639,373.72644l15.493-.688s9,18,10,34l5.507,59.688-35.507,5.312Z" transform="translate(-274.74896 -100.65752)" fill="#e6e6e6"/><path id="f41dbfcb-858e-4d45-9b75-6131cbc8ec95" data-name="Path 2947" d="M668.906,308.96745l10.4-13.382a10.911,10.911,0,0,0-8.282-12.969l-39.292-8.667a10.912,10.912,0,0,0-12.97,8.282l-.022.1,2.814,16.159.494-.088c24.385-4.348,31.331-2.818,46.459,10.226Z" transform="translate(-274.74896 -100.65752)" fill="#2f2e41"/><path id="ed879564-5a8c-4e9d-a096-68f5b6ab9b62" data-name="Path 2948" d="M564.258,522.78045l1.875-78.74,2-56,24,3-12.889,133.845a11,11,0,1,1-15.45752-1.75067q.2309-.184.4715-.35532Z" transform="translate(-274.74896 -100.65752)" fill="#ffb6b6"/><path id="aaf783f1-6b30-4a3e-8412-451b817d63a0" data-name="Path 2949" d="M596.64,348.72644l-17.507-1.688s-3,0-6,10-19.492,115.688-19.492,115.688l36.493,3.312Z" transform="translate(-274.74896 -100.65752)" fill="#e6e6e6"/></g><circle id="af8c7bff-6816-464a-b0a9-6a679aecd372" data-name="Ellipse 563" cx="156.16609" cy="65.03493" r="45.498" fill="#3d98ff"/><path d="M441.587,193.65362a46.49805,46.49805,0,1,1,46.498-46.498A46.55065,46.55065,0,0,1,441.587,193.65362Zm0-90.9961a44.49805,44.49805,0,1,0,44.498,44.49805A44.54859,44.54859,0,0,0,441.587,102.65752Z" transform="translate(-274.74896 -100.65752)" fill="#3f3d56"/><circle id="a60e3f6d-2e55-4ba4-880b-24129c1d171d" data-name="Ellipse 565" cx="574.83012" cy="227.41992" r="31.244" fill="#3d98ff"/><path d="M856.908,347.59258a32.24414,32.24414,0,1,1,32.24414-32.24414A32.28068,32.28068,0,0,1,856.908,347.59258Zm0-62.48828a30.24414,30.24414,0,1,0,30.24414,30.24414A30.27823,30.27823,0,0,0,856.908,285.1043Z" transform="translate(-274.74896 -100.65752)" fill="#3f3d56"/><path id="aea90dfe-d7fa-4ce2-8106-f6b698b2b1f8" data-name="Path 2960" d="M924.251,799.34248h-600a1,1,0,1,1,0-2h600a1,1,0,0,1,0,2Z" transform="translate(-274.74896 -100.65752)" fill="#cacaca"/><g id="baaccb77-fe9e-4683-9e52-b00664372613" data-name="Group 58"><path id="fb603159-8dea-4755-9c7c-d25bd7f9bc0c" data-name="Path 438" d="M882.44706,758.66947a19.47408,19.47408,0,0,1-18.806-3.313c-6.587-5.528-8.652-14.637-10.332-23.07l-4.97-24.945,10.405,7.165c7.483,5.152,15.134,10.47,20.316,17.933s7.443,17.651,3.28,25.727" transform="translate(-274.74896 -100.65752)" fill="#fd6584"/><path id="a8ec8a48-e4af-4fa0-8d27-3c92af74fe9a" data-name="Path 439" d="M880.84005,790.60551c1.31-9.542,2.657-19.206,1.738-28.85-.816-8.565-3.429-16.93-8.749-23.789a39.57383,39.57383,0,0,0-10.153-9.2c-1.015-.641-1.95.968-.939,1.606a37.62185,37.62185,0,0,1,14.881,17.956c3.24,8.241,3.76,17.224,3.2,25.978-.338,5.294-1.053,10.553-1.774,15.806a.964.964,0,0,0,.65,1.144.936.936,0,0,0,1.144-.65Z" transform="translate(-274.74896 -100.65752)" fill="#f2f2f2"/><path id="b09ba816-4f06-4578-8eb4-a29f6123e742" data-name="Path 442" d="M871.41305,775.29649a14.336,14.336,0,0,1-12.491,6.447c-6.323-.3-11.595-4.713-16.34-8.9l-14.035-12.396,9.289-.444c6.68-.32,13.533-.618,19.9,1.442s12.231,7.018,13.394,13.6" transform="translate(-274.74896 -100.65752)" fill="#e6e6e6"/><path id="add4fdd4-5f13-462c-8fd8-fbec5e5c357a" data-name="Path 443" d="M884.542,796.09147c-6.3-11.156-13.618-23.555-26.685-27.518a29.77876,29.77876,0,0,0-11.224-1.159c-1.192.1-.894,1.94.3,1.837a27.66482,27.66482,0,0,1,17.912,4.739c5.051,3.438,8.983,8.217,12.311,13.286,2.039,3.1,3.865,6.341,5.691,9.573C883.42605,797.88151,885.132,797.13645,884.542,796.09147Z" transform="translate(-274.74896 -100.65752)" fill="#f2f2f2"/></g><g id="ee656491-410e-4193-8926-ffe46b73d48a" data-name="Group 222"><path id="a6ee8b3a-6384-4722-b3cb-80bef4872a5a" data-name="Path 2961" d="M387.748,771.657a14.336,14.336,0,0,0,13.96062-1.64007c5.07425-3.78449,6.97639-10.39054,8.56966-16.51565l4.70658-18.12088-7.94921,4.82625c-5.71691,3.47012-11.565,7.05522-15.69149,12.32341s-6.2142,12.65074-3.49467,18.76417" transform="translate(-274.74896 -100.65752)" fill="#e6e6e6"/><path id="f2bbd591-1ffb-4624-8852-7218542fde3c" data-name="Path 2962" d="M388.492,796.23851c-1.01542-12.77166-1.882-27.14307,6.735-37.73552a29.77858,29.77858,0,0,1,8.65784-7.23779c1.04413-.58366,1.826,1.10841.77852,1.6907a27.66393,27.66393,0,0,0-12.1997,13.94507c-2.265,5.67471-2.85236,11.83543-2.77685,17.89882.04309,3.71021.34161,7.4182.6351,11.11874C390.41813,797.09843,388.58663,797.434,388.492,796.23851Z" transform="translate(-274.74896 -100.65752)" fill="#f2f2f2"/></g><circle id="e41ec8f5-a87e-4b16-bc24-7a000bd09eb1" data-name="Ellipse 567" cx="94.86508" cy="334.45992" r="44.913" fill="#e4e4e4"/><path d="M380.14893,462.73321a45.91285,45.91285,0,1,1,45.91308-45.9126A45.96467,45.96467,0,0,1,380.14893,462.73321Zm0-89.82569A43.91285,43.91285,0,1,0,424.062,416.82061,43.96263,43.96263,0,0,0,380.14893,372.90752Z" transform="translate(-274.74896 -100.65752)" fill="#2f2e41"/><circle cx="67.75104" cy="170.34248" r="8" fill="#f2f2f2"/><circle cx="478.75104" cy="130.34248" r="8" fill="#fd6584"/><circle cx="531.75104" cy="414.34248" r="8" fill="#f2f2f2"/><polygon points="214.063 206.857 214.063 206.857 214.063 206.857 214.063 206.857" fill="#f2f2f2"/><path d="M448.2282,302.301l.30342-1.97729,39.07263,5.99423c-3.98179-3.84384-17.168-15.73149-29.12694-16.93687-14.28681-1.43982-20.57275,4.676-21.40353,12.91859s4.10776,15.49,18.39488,16.9302c12.11058,1.22082,27.64265-8.04289,32.0955-10.89447Z" transform="translate(-274.74896 -100.65752)" fill="#f2f2f2"/><polygon points="579.407 70.278 579.407 70.278 579.407 70.278 579.407 70.278" fill="#f2f2f2"/><path d="M822.11667,196.38545l-1.20553-1.59638,31.5445-23.82322c-5.5317.17315-23.24738,1.33352-32.45121,9.064-10.99524,9.2353-10.99568,18.0055-5.66758,24.34912s13.9664,7.85835,24.96212-1.3769c9.32063-7.82832,13.513-25.42051,14.57462-30.60051Z" transform="translate(-274.74896 -100.65752)" fill="#f2f2f2"/><polygon points="495.935 306.755 495.935 306.755 495.935 306.755 495.935 306.755" fill="#f2f2f2"/><path d="M747.63418,425.72227l-.86731-1.1485,22.69437-17.13937c-3.97973.12457-16.72509.95939-23.34669,6.521-7.91041,6.64423-7.91073,12.95387-4.07748,17.51772s10.048,5.65361,17.95874-.9906c6.70562-5.632,9.72181-18.28852,10.48556-22.01522Z" transform="translate(-274.74896 -100.65752)" fill="#f2f2f2"/><path d="M567.97934,152.90952c6.14879-16.53194,20.67627-30.81667,38.23241-32.51582a81.26684,81.26684,0,0,0-12.844,54.29669c.89844,7.34267,2.66227,15.41593-1.29595,21.66534-2.46282,3.88858-6.80323,6.28249-11.27737,7.36283-4.4744,1.08028-9.13654.99659-13.73863.90672l-1.03029.50874C562.78888,187.79515,561.83056,169.44146,567.97934,152.90952Z" transform="translate(-274.74896 -100.65752)" fill="#f0f0f0"/><path d="M606.29674,120.75391a69.46131,69.46131,0,0,0-25.80578,34.066,29.91265,29.91265,0,0,0-1.82558,9.1926,17.15622,17.15622,0,0,0,2.31994,8.72606c1.385,2.49909,3.091,4.895,3.84436,7.68725a10.50475,10.50475,0,0,1-1.47529,8.46337c-1.98468,3.11122-4.9689,5.32376-7.96242,7.386-3.32372,2.28975-6.81231,4.61543-8.846,8.21248-.24641.43583-.90826.028-.66223-.40717,3.53827-6.25825,10.964-8.53149,15.50673-13.84739,2.1197-2.48049,3.50472-5.61481,2.84937-8.91778-.57308-2.88829-2.33027-5.36049-3.75444-7.87876a18.30685,18.30685,0,0,1-2.5863-8.44768,27.65338,27.65338,0,0,1,1.46542-9.22888,67.38964,67.38964,0,0,1,9.50523-18.79553,70.69316,70.69316,0,0,1,17.06068-16.89636c.40916-.28566.7728.402.36631.68582Z" transform="translate(-274.74896 -100.65752)" fill="#fff"/><path d="M581.77789,150.29a10.42139,10.42139,0,0,1-5.20576-12.4501c.15335-.47609.90037-.26014.74681.21658a9.65,9.65,0,0,0,4.86612,11.57129c.44694.22466.03721.8856-.40717.66223Z" transform="translate(-274.74896 -100.65752)" fill="#fff"/><path d="M580.1162,171.56387a20.08641,20.08641,0,0,0,11.39256-9.192c.24795-.43494.90988-.02725.66223.40717a20.89281,20.89281,0,0,1-11.87443,9.541c-.47837.14957-.65613-.60742-.18036-.75617Z" transform="translate(-274.74896 -100.65752)" fill="#fff"/><path d="M594.0838,131.28338a5.899,5.899,0,0,0,5.50539,1.01112c.47624-.15556.65349.60163.18036.75618a6.61035,6.61035,0,0,1-6.09292-1.10507.40175.40175,0,0,1-.12753-.5347.39066.39066,0,0,1,.5347-.12753Z" transform="translate(-274.74896 -100.65752)" fill="#fff"/><path d="M648.52826,162.5338c-.2946.10559-.58921.21118-.88564.32309a77.687,77.687,0,0,0-11.452,5.25938c-.28616.15479-.57384.316-.855.47865a81.89936,81.89936,0,0,0-22.91541,19.59789,79.53468,79.53468,0,0,0-6.83507,9.96571c-2.79266,4.82059-5.43706,10.26953-9.53838,13.78262a13.64235,13.64235,0,0,1-1.33656,1.03217l-27.98417-6.62184c-.05605-.047-.11391-.08766-.17027-.13469l-1.12941-.21331c.09173-.1873.19089-.37959.28262-.56689.05276-.10887.11175-.21626.1645-.32513.03715-.07212.07462-.1442.104-.21139.01227-.024.02486-.048.03563-.06573.0294-.06719.06384-.12649.09173-.1873q.827-1.61457,1.67953-3.22313c.00151-.00639.00151-.00639.00926-.01131a116.94421,116.94421,0,0,1,15.52657-22.87674c.18372-.206.36863-.41843.56513-.62139a75.89471,75.89471,0,0,1,9.01481-8.49255,67.09652,67.09652,0,0,1,5.52493-3.9448,55.79245,55.79245,0,0,1,15.99471-6.96226c11.29084-2.92428,23.39124-2.205,33.35174,3.57023C648.02629,162.233,648.27508,162.37948,648.52826,162.5338Z" transform="translate(-274.74896 -100.65752)" fill="#f0f0f0"/><path d="M648.38131,162.87409A69.46125,69.46125,0,0,0,607.26678,174.537a29.91234,29.91234,0,0,0-6.9922,6.24065,17.15609,17.15609,0,0,0-3.40135,8.364c-.39882,2.82922-.47913,5.7694-1.55875,8.45241a10.50474,10.50474,0,0,1-6.27347,5.8693c-3.45782,1.28922-7.17266,1.2591-10.80444,1.1034-4.03239-.17288-8.21806-.41633-12.00751,1.2313-.45915.19963-.74206-.52448-.28361-.72381,6.593-2.86658,13.89071-.21081,20.71833-1.72024,3.1859-.70433,6.17884-2.373,7.64418-5.40483,1.28139-2.65118,1.3668-5.683,1.74585-8.55118a18.30691,18.30691,0,0,1,3.02108-8.30214,27.65318,27.65318,0,0,1,6.72648-6.48646A67.39008,67.39008,0,0,1,624.707,165.325a70.69334,70.69334,0,0,1,23.79478-3.21908c.49868.01826.375.78628-.12043.76814Z" transform="translate(-274.74896 -100.65752)" fill="#fff"/><path d="M611.02162,171.69494A10.42142,10.42142,0,0,1,614.36093,158.62c.40909-.28779.87553.33438.4659.62256a9.65,9.65,0,0,0-3.0814,12.16877c.2216.44847-.50348.72951-.72381.28361Z" transform="translate(-274.74896 -100.65752)" fill="#fff"/><path d="M596.88651,187.6805a20.0864,20.0864,0,0,0,14.63051-.48016c.45984-.198.7429.526.28361.72381a20.89288,20.89288,0,0,1-15.22539.4687c-.472-.16859-.15817-.88.31127-.71235Z" transform="translate(-274.74896 -100.65752)" fill="#fff"/><path d="M632.29049,163.92824a5.899,5.899,0,0,0,3.787,4.12195c.4739.16252.15955.87382-.31127.71235a6.61031,6.61031,0,0,1-4.19953-4.55069.40175.40175,0,0,1,.2201-.50371.39067.39067,0,0,1,.50371.2201Z" transform="translate(-274.74896 -100.65752)" fill="#fff"/><path d="M482.97934,380.90952c6.14879-16.53194,20.67627-30.81667,38.23241-32.51582a81.26684,81.26684,0,0,0-12.844,54.29669c.89844,7.34267,2.66227,15.41593-1.29595,21.66534-2.46282,3.88858-6.80323,6.28249-11.27737,7.36283-4.4744,1.08028-9.13654.99659-13.73863.90672l-1.03029.50874C477.78888,415.79515,476.83056,397.44146,482.97934,380.90952Z" transform="translate(-274.74896 -100.65752)" fill="#f0f0f0"/><path d="M521.29674,348.75391A69.46131,69.46131,0,0,0,495.491,382.81986a29.91265,29.91265,0,0,0-1.82558,9.1926,17.15622,17.15622,0,0,0,2.31994,8.72606c1.385,2.49909,3.091,4.895,3.84436,7.68725a10.50475,10.50475,0,0,1-1.47529,8.46337c-1.98468,3.11122-4.9689,5.32376-7.96242,7.386-3.32372,2.28975-6.81231,4.61543-8.846,8.21248-.24641.43583-.90826.028-.66223-.40717,3.53827-6.25825,10.964-8.53149,15.50673-13.84739,2.1197-2.48049,3.50472-5.61481,2.84937-8.91778-.57308-2.88829-2.33027-5.36049-3.75444-7.87876a18.30685,18.30685,0,0,1-2.5863-8.44768,27.65338,27.65338,0,0,1,1.46542-9.22888,67.38964,67.38964,0,0,1,9.50523-18.79553,70.69316,70.69316,0,0,1,17.06068-16.89636c.40916-.28566.7728.402.36631.68582Z" transform="translate(-274.74896 -100.65752)" fill="#fff"/><path d="M496.77789,378.29a10.42139,10.42139,0,0,1-5.20576-12.4501c.15335-.47609.90037-.26014.74681.21658a9.65,9.65,0,0,0,4.86612,11.57129c.44694.22466.03721.8856-.40717.66223Z" transform="translate(-274.74896 -100.65752)" fill="#fff"/><path d="M495.1162,399.56387a20.08641,20.08641,0,0,0,11.39256-9.192c.248-.43494.90988-.02725.66223.40717a20.89281,20.89281,0,0,1-11.87443,9.541c-.47837.14957-.65613-.60742-.18036-.75617Z" transform="translate(-274.74896 -100.65752)" fill="#fff"/><path d="M509.0838,359.28338a5.899,5.899,0,0,0,5.50539,1.01112c.47624-.15556.65349.60163.18036.75618a6.61035,6.61035,0,0,1-6.09292-1.10507.40175.40175,0,0,1-.12753-.5347.39066.39066,0,0,1,.5347-.12753Z" transform="translate(-274.74896 -100.65752)" fill="#fff"/><path d="M563.52826,390.5338c-.2946.10559-.58921.21118-.88564.32309a77.687,77.687,0,0,0-11.452,5.25938c-.28616.15479-.57384.316-.855.47865a81.89936,81.89936,0,0,0-22.91541,19.59789,79.53468,79.53468,0,0,0-6.83507,9.96571c-2.79266,4.82059-5.43706,10.26953-9.53838,13.78262a13.64235,13.64235,0,0,1-1.33656,1.03217l-27.98417-6.62184c-.05605-.047-.11391-.08766-.17027-.13469l-1.12941-.21331c.09173-.1873.19089-.37959.28262-.56689.05276-.10887.11175-.21626.1645-.32513.03715-.07212.07462-.1442.104-.21139.01227-.024.02486-.048.03563-.06573.0294-.06719.06384-.12649.09173-.1873q.827-1.61457,1.67953-3.22313c.00151-.00639.00151-.00639.00926-.01131a116.94421,116.94421,0,0,1,15.52657-22.87674c.18372-.206.36863-.41843.56513-.62139a75.89471,75.89471,0,0,1,9.01481-8.49255,67.09652,67.09652,0,0,1,5.52493-3.9448,55.79245,55.79245,0,0,1,15.99471-6.96226c11.29084-2.92428,23.39124-2.205,33.35174,3.57023C563.02629,390.233,563.27508,390.37948,563.52826,390.5338Z" transform="translate(-274.74896 -100.65752)" fill="#f0f0f0"/><path d="M563.38131,390.87409A69.46125,69.46125,0,0,0,522.26678,402.537a29.91234,29.91234,0,0,0-6.9922,6.24065,17.15609,17.15609,0,0,0-3.40135,8.364c-.39882,2.82922-.47913,5.7694-1.55875,8.45241a10.50474,10.50474,0,0,1-6.27347,5.8693c-3.45782,1.28922-7.17266,1.2591-10.80444,1.1034-4.03239-.17288-8.21806-.41633-12.00751,1.2313-.45915.19963-.74206-.52448-.28361-.72381,6.593-2.86658,13.89071-.21081,20.71833-1.72024,3.1859-.70433,6.17884-2.373,7.64418-5.40483,1.28139-2.65118,1.3668-5.683,1.74585-8.55118a18.30691,18.30691,0,0,1,3.02108-8.30214,27.65318,27.65318,0,0,1,6.72648-6.48646A67.39008,67.39008,0,0,1,539.707,393.325a70.69334,70.69334,0,0,1,23.79478-3.21908c.49868.01826.375.78628-.12043.76814Z" transform="translate(-274.74896 -100.65752)" fill="#fff"/><path d="M526.02162,399.69494A10.42142,10.42142,0,0,1,529.36093,386.62c.40909-.28779.87553.33438.4659.62256a9.65,9.65,0,0,0-3.0814,12.16877c.2216.44847-.50348.72951-.72381.28361Z" transform="translate(-274.74896 -100.65752)" fill="#fff"/><path d="M511.88651,415.6805a20.0864,20.0864,0,0,0,14.63051-.48016c.45984-.198.7429.526.28361.72381a20.89288,20.89288,0,0,1-15.22539.4687c-.472-.16859-.15817-.88.31127-.71235Z" transform="translate(-274.74896 -100.65752)" fill="#fff"/><path d="M547.29049,391.92824a5.899,5.899,0,0,0,3.787,4.12195c.4739.16252.15955.87382-.31127.71235a6.61031,6.61031,0,0,1-4.19953-4.55069.40175.40175,0,0,1,.2201-.50371.39067.39067,0,0,1,.50371.2201Z" transform="translate(-274.74896 -100.65752)" fill="#fff"/><path d="M831.32381,504.82439c-3.13786-11.73057-.67686-25.53931,8.50057-33.49063a55.94745,55.94745,0,0,0,14.432,35.5974c3.431,3.76352,7.6389,7.59221,7.90795,12.67782a12.50652,12.50652,0,0,1-3.39557,8.62788,37.14308,37.14308,0,0,1-7.35042,5.98492l-.37555.69623C842.315,526.47535,834.46167,516.555,831.32381,504.82439Z" transform="translate(-274.74896 -100.65752)" fill="#f0f0f0"/><path d="M840.01566,471.50208a47.82,47.82,0,0,0-.90735,29.40773,20.59268,20.59268,0,0,0,2.63925,5.88767,11.811,11.811,0,0,0,4.78028,3.97346,24.44625,24.44625,0,0,1,5.22193,2.78275,7.23191,7.23191,0,0,1,2.54522,5.33872,18.78969,18.78969,0,0,1-1.52556,7.31962c-.953,2.61006-1.9843,5.306-1.69214,8.1357.0354.34286-.49867.37774-.534.0354-.50831-4.92319,2.75388-9.159,3.185-13.95355a7.32394,7.32394,0,0,0-1.955-6.14147c-1.47291-1.39285-3.44463-2.08017-5.24779-2.92609a12.60323,12.60323,0,0,1-4.81884-3.711,19.03771,19.03771,0,0,1-2.85588-5.76448,46.394,46.394,0,0,1-2.156-14.339,48.668,48.668,0,0,1,2.842-16.28439c.11581-.32343.594-.08236.479.239Z" transform="translate(-274.74896 -100.65752)" fill="#fff"/><path d="M838.02516,497.85414a7.17452,7.17452,0,0,1-7.88449-4.91362c-.10368-.32837.40172-.5049.50553-.1761a6.64345,6.64345,0,0,0,7.34357,4.5557c.34042-.052.37387.48228.03539.534Z" transform="translate(-274.74896 -100.65752)" fill="#fff"/><path d="M845.57179,510.458a13.82831,13.82831,0,0,0,2.73118-9.70052c-.03419-.343.49987-.378.534-.0354a14.38351,14.38351,0,0,1-2.86255,10.0885c-.20891.27463-.61041-.07944-.40264-.35258Z" transform="translate(-274.74896 -100.65752)" fill="#fff"/><path d="M837.3571,482.28037a4.06112,4.06112,0,0,0,3.49332-1.62678c.20532-.27714.60662.07724.40263.35258a4.55082,4.55082,0,0,1-3.86056,1.80822.27658.27658,0,0,1-.2847-.24931.26894.26894,0,0,1,.24931-.28471Z" transform="translate(-274.74896 -100.65752)" fill="#fff"/><path d="M880.3739,478.12144c-.12328.17669-.24656.35339-.36835.53436a53.48206,53.48206,0,0,0-4.332,7.51675c-.09894.20095-.19618.40609-.28914.60946a56.38309,56.38309,0,0,0-5.05162,20.13441,54.75484,54.75484,0,0,0,.13546,8.31833c.35381,3.819,1.04129,7.93164.13937,11.53833a9.393,9.393,0,0,1-.33884,1.11211l-18.34753,7.437c-.05018-.004-.09887-.0038-.14925-.00774l-.719.33043c-.02316-.1417-.04415-.28916-.06731-.43086-.01378-.08214-.02347-.16594-.03725-.24808-.0079-.05528-.01559-.11067-.02588-.16011-.00269-.01839-.00518-.03687-.00619-.05109-.01028-.04944-.01458-.09645-.02317-.1417q-.17932-1.23593-.34192-2.47865c-.00169-.00419-.00169-.00419.0007-.01a80.509,80.509,0,0,1-.40281-19.02986c.021-.18885.04015-.38181.06955-.57406a52.248,52.248,0,0,1,1.67526-8.3602,46.18955,46.18955,0,0,1,1.529-4.41644,38.40967,38.40967,0,0,1,6.20319-10.28328c5.17225-6.14179,12.25119-10.561,20.14415-11.28932C879.97224,478.15267,880.17028,478.13573,880.3739,478.12144Z" transform="translate(-274.74896 -100.65752)" fill="#f0f0f0"/><path d="M880.42705,478.371a47.82,47.82,0,0,0-18.43,22.93414,20.593,20.593,0,0,0-1.43749,6.29,11.81107,11.81107,0,0,0,1.42449,6.05065,24.446,24.446,0,0,1,2.494,5.36582,7.23189,7.23189,0,0,1-1.18206,5.79507,18.78977,18.78977,0,0,1-5.625,4.92581c-2.33239,1.5102-4.77893,3.04187-6.24933,5.47713-.17816.29506-.62559.00137-.4477-.29325,2.55825-4.23693,7.71316-5.65491,10.944-9.22355a7.32394,7.32394,0,0,0,2.1366-6.08069c-.33744-1.99891-1.49794-3.73481-2.42835-5.49585A12.60324,12.60324,0,0,1,860.013,508.252a19.03767,19.03767,0,0,1,1.19036-6.322,46.394,46.394,0,0,1,6.91158-12.747,48.66809,48.66809,0,0,1,12.07352-11.2911c.28719-.18851.52388.29189.23856.47917Z" transform="translate(-274.74896 -100.65752)" fill="#fff"/><path d="M862.972,498.21325a7.17451,7.17451,0,0,1-3.337-8.67026c.11492-.3246.62473-.16127.50966.16376a6.64346,6.64346,0,0,0,3.12058,8.05881c.30314.16341.00815.61017-.29325.44769Z" transform="translate(-274.74896 -100.65752)" fill="#fff"/><path d="M861.40915,512.82031a13.82828,13.82828,0,0,0,8.02108-6.101c.1792-.29443.62668-.00082.44769.29325a14.3835,14.3835,0,0,1-8.35956,6.33164c-.33214.0935-.43954-.43093-.10921-.52393Z" transform="translate(-274.74896 -100.65752)" fill="#fff"/><path d="M871.81505,485.37625a4.06112,4.06112,0,0,0,3.76866.80432c.33079-.09766.43785.4269.10921.52393a4.55086,4.55086,0,0,1-4.17112-.88056.27659.27659,0,0,1-.07722-.37047.26894.26894,0,0,1,.37047-.07722Z" transform="translate(-274.74896 -100.65752)" fill="#fff"/></svg>